<?xml version="1.0" encoding="utf-8"?>
<!-- Generator: Adobe Illustrator 23.0.6, SVG Export Plug-In . SVG Version: 6.00 Build 0)  -->
<svg version="1.1" id="Layer_1" xmlns="http://www.w3.org/2000/svg" xmlns:xlink="http://www.w3.org/1999/xlink" x="0px" y="0px"
	 viewBox="0 0 112 14" style="enable-background:new 0 0 112 14;" xml:space="preserve">
<title>commerce</title>
<path d="M5.5,12.5L4,4.3l0,0c0-0.1,0-0.1,0.1-0.2c0.1,0,0.1-0.1,0.2-0.1h0.9c0.1,0,0.2,0,0.3,0.1c0.1,0.1,0.1,0.1,0.1,0.2l0.8,5l0,0
	h0.1l0,0l0.7-5c0-0.1,0-0.1,0.1-0.2c0-0.1,0.1-0.1,0.2-0.1c0.1,0,0.1,0,0.2,0h1c0.1,0,0.1,0,0.2,0c0.1,0,0.1,0.1,0.1,0.1
	c0,0,0.1,0.1,0.1,0.2l0.9,5.1c0,0,0,0,0.1,0l0,0l0,0l0.7-5.1c0-0.1,0.1-0.2,0.1-0.2c0.1-0.1,0.2-0.1,0.3-0.1h0.9c0,0,0.1,0,0.1,0
	c0,0,0.1,0.1,0.1,0.1c0,0,0,0.1,0,0.1l-1.3,8.1c0,0.1-0.1,0.2-0.1,0.3c-0.1,0.1-0.2,0.1-0.3,0.1H9.2c-0.1,0-0.2,0-0.3-0.1
	c-0.1-0.1-0.1-0.1-0.1-0.2l-0.7-4l-0.6,3.9c0,0.1-0.1,0.2-0.2,0.3c-0.1,0.1-0.2,0.1-0.3,0.1H5.9c-0.1,0-0.1,0-0.2,0
	c-0.1,0-0.1-0.1-0.1-0.1C5.5,12.7,5.5,12.6,5.5,12.5z"/>
<path d="M13.1,12.4V4.3c0-0.1,0-0.2,0.1-0.2C13.2,4.1,13.3,4,13.4,4h3.7c0.1,0,0.2,0,0.2,0.1c0.1,0.1,0.1,0.1,0.1,0.2v0.9
	c0,0.1,0,0.1,0,0.2c0,0,0,0.1-0.1,0.1c-0.1,0-0.1,0-0.2,0h-2.5v2h1.9c0.1,0,0.2,0,0.2,0.1c0.1,0.1,0.1,0.1,0.1,0.2v0.9
	c0,0.1,0,0.2-0.1,0.2C16.6,9,16.6,9,16.5,9h-1.9v2.2h2.5c0.1,0,0.2,0,0.2,0.1c0.1,0.1,0.1,0.1,0.1,0.2v0.9c0,0.1,0,0.1,0,0.2
	c0,0-0.1,0.1-0.1,0.1c-0.1,0-0.1,0-0.2,0h-3.7c-0.1,0-0.2,0-0.2-0.1C13.1,12.6,13.1,12.5,13.1,12.4z"/>
<path d="M20.4,12.4V4.6c0-0.1,0-0.2,0.1-0.3c0.1-0.1,0.1-0.1,0.2-0.2c0.1,0,0.2-0.1,0.3-0.1h2.5c0.3,0,0.5,0.1,0.8,0.2
	c0.2,0.1,0.4,0.3,0.6,0.6C24.9,5.1,25,5.4,25,5.7v1c0,0.2,0,0.4-0.1,0.6c-0.1,0.2-0.2,0.4-0.3,0.6c-0.1,0.2-0.3,0.3-0.6,0.4
	c0.4,0.1,0.7,0.3,0.9,0.6c0.2,0.4,0.3,0.8,0.3,1.2v0.9c0,0.3,0,0.6-0.1,0.9c-0.1,0.2-0.2,0.4-0.4,0.6c-0.1,0.1-0.3,0.3-0.5,0.3
	c-0.2,0.1-0.4,0.1-0.6,0.1h-2.9c-0.1,0-0.1,0-0.2-0.1c-0.1,0-0.1-0.1-0.1-0.1C20.4,12.5,20.3,12.5,20.4,12.4z M22.8,7.6
	c0.1,0,0.2,0,0.3-0.1c0.1-0.1,0.2-0.2,0.2-0.3c0.1-0.2,0.1-0.3,0.1-0.5V6.1c0-0.2,0-0.5-0.2-0.7c-0.2-0.2-0.4-0.2-0.6-0.2H22
	c-0.1,0-0.1,0-0.1,0.1c0,0-0.1,0.1-0.1,0.1v2.1c0,0.1,0.1,0.1,0.1,0.1L22.8,7.6z M23,11.6c0.2,0,0.4-0.1,0.6-0.3
	c0.1-0.2,0.2-0.4,0.2-0.7V10c0-0.2,0-0.4-0.1-0.6c-0.1-0.1-0.1-0.2-0.3-0.3C23.2,9,23,8.9,22.8,9h-0.8C22,8.9,22,9,21.9,9
	c0,0.1,0,0.1,0,0.2v2.3c0,0,0,0.1,0,0.1c0.1,0,0.1,0,0.2,0L23,11.6z"/>
<path d="M26.7,11.6c-0.2-0.4-0.3-0.8-0.3-1.2V4.6c0-0.1,0-0.2,0.1-0.3c0-0.1,0.1-0.1,0.2-0.2C26.7,4,26.8,4,26.9,4h0.7h0.1
	c0,0,0.1,0,0.1,0.1c0.1,0,0.1,0.1,0.1,0.2c0,0.1,0,0.2,0,0.3v5.7c0,0.2,0,0.4,0.1,0.5c0.1,0.2,0.2,0.3,0.4,0.4
	c0.1,0.1,0.3,0.1,0.5,0.1h0.2c0.2,0,0.3,0,0.5-0.1c0.1-0.1,0.3-0.2,0.4-0.4c0.1-0.2,0.1-0.3,0.1-0.5V4.6c0-0.1,0-0.2,0.1-0.3
	c0-0.1,0.1-0.1,0.2-0.2C30.5,4,30.6,4,30.7,4h0.5c0.1,0,0.2,0,0.3,0.1c0.1,0,0.1,0.1,0.2,0.2c0,0.1,0.1,0.2,0.1,0.4v5.8
	c0,0.3,0,0.6-0.1,0.8c-0.1,0.3-0.2,0.5-0.4,0.7c-0.2,0.2-0.4,0.4-0.7,0.6c-0.4,0.2-0.8,0.3-1.2,0.3h-0.5c-0.3,0-0.6,0-0.9-0.1
	c-0.3-0.1-0.5-0.2-0.7-0.4C27,12,26.8,11.8,26.7,11.6z"/>
<path d="M34,12.5V8.9c0-0.2-0.1-0.4-0.2-0.6l-1.5-3.8c0-0.1,0-0.1,0-0.2c0,0,0-0.1,0-0.2c0-0.1,0.1-0.1,0.2-0.1
	C32.6,4,32.7,4,32.7,4h0.8c0.2,0,0.3,0.1,0.4,0.3l0.8,2.5c0,0,0,0,0.1,0l0,0l0.9-2.5c0-0.1,0.1-0.1,0.1-0.2C35.9,4,36,4,36.1,4h0.8
	c0.1,0,0.2,0,0.2,0.1c0.1,0,0.1,0.1,0.2,0.1c0,0.1,0,0.1,0,0.2c0,0,0.1,0.1,0.1,0.1l0,0l-1.5,3.8c-0.1,0.2-0.1,0.4-0.2,0.6v3.6
	c0,0.1,0,0.1,0,0.2c0,0.1-0.1,0.1-0.2,0.1c-0.1,0-0.1,0-0.2,0.1h-0.9c-0.1,0-0.1,0-0.2-0.1c-0.1,0-0.1-0.1-0.1-0.1
	C34,12.6,34,12.6,34,12.5z"/>
<path d="M40,12.4V4.3C40,4.2,40.2,4,40.3,4c0,0,0,0,0,0H44c0.2,0,0.3,0.1,0.3,0.3c0,0,0,0,0,0v0.9c0,0.1,0,0.1,0,0.2
	c0,0.1-0.1,0.1-0.1,0.1c-0.1,0-0.1,0-0.2,0h-2.5v2h1.9c0.1,0,0.2,0,0.2,0.1c0.1,0.1,0.1,0.1,0.1,0.2v0.9c0,0.1,0,0.2-0.1,0.2
	C43.6,9,43.5,9,43.4,9h-1.9v2.2H44c0.2,0,0.3,0.1,0.3,0.3c0,0,0,0,0,0v0.9c0,0.1,0,0.1,0,0.2c0,0-0.1,0.1-0.1,0.1
	c-0.1,0-0.1,0-0.2,0h-3.7c-0.1,0-0.2,0-0.2-0.1C40.1,12.6,40,12.5,40,12.4z"/>
<path d="M45.7,11.7c-0.2-0.4-0.3-0.8-0.3-1.2V6.3c0-0.3,0-0.6,0.1-0.8c0.1-0.3,0.2-0.5,0.4-0.7c0.2-0.2,0.4-0.4,0.6-0.5
	c0.4-0.2,0.8-0.3,1.2-0.3h0.4c0.3,0,0.5,0,0.8,0.1c0.2,0.1,0.5,0.2,0.7,0.3c0.2,0.1,0.4,0.3,0.5,0.5c0.2,0.3,0.4,0.8,0.4,1.2
	c0,0.1,0,0.1-0.1,0.2c0,0-0.1,0.1-0.2,0.1h-1c-0.1,0-0.1,0-0.2-0.1C49,6.2,49,6.1,49,6.1c0-0.2-0.1-0.3-0.2-0.5
	c-0.1-0.1-0.2-0.2-0.3-0.2c-0.2,0-0.3-0.1-0.5-0.1h0c-0.2,0-0.3,0-0.5,0.1c-0.1,0.1-0.3,0.2-0.4,0.3c-0.1,0.1-0.1,0.3-0.1,0.5v4.1
	c0,0.2,0.1,0.3,0.1,0.5c0.1,0.2,0.2,0.3,0.4,0.4c0.2,0.1,0.3,0.1,0.5,0.1l0,0c0.2,0,0.3,0,0.5-0.1c0.1-0.1,0.3-0.2,0.3-0.4
	c0.1-0.2,0.1-0.3,0.1-0.5V9.8h-0.6c-0.1,0-0.1,0-0.2-0.1c0-0.1-0.1-0.1,0-0.2V8.6c0,0,0-0.1,0-0.1c0-0.1,0.1-0.1,0.1-0.1
	c0.1,0,0.1,0,0.2,0h2c0,0,0.1,0,0.1,0c0,0,0.1,0.1,0.1,0.1c0,0,0,0.1,0,0.1v1.8c0,0.3-0.1,0.6-0.2,0.9c-0.1,0.3-0.2,0.5-0.4,0.7
	c-0.2,0.2-0.4,0.4-0.6,0.6c-0.4,0.2-0.8,0.3-1.2,0.3h-0.4c-0.3,0-0.6,0-0.8-0.1c-0.3-0.1-0.5-0.2-0.7-0.4
	C46,12.1,45.8,11.9,45.7,11.7z"/>
<path d="M51.7,12.5V4.4c0-0.1,0-0.1,0-0.2c0-0.1,0.1-0.1,0.1-0.1c0.1,0,0.1,0,0.2,0h2.5c0.3,0,0.7,0.1,1,0.2
	c0.3,0.1,0.5,0.4,0.7,0.6c0.2,0.3,0.2,0.6,0.2,0.9v1.5c0,0.2,0,0.4-0.1,0.6c-0.1,0.2-0.2,0.4-0.3,0.5c-0.1,0.2-0.3,0.3-0.5,0.4l0,0
	l1.3,3.7c0,0,0,0.1,0,0.1c0,0.1,0,0.1-0.1,0.1c0,0-0.1,0.1-0.2,0.1h-1.1c-0.1,0-0.1,0-0.2,0c-0.1,0-0.1-0.1-0.2-0.1
	c0,0-0.1-0.1-0.1-0.1l-1-3.1c-0.1-0.1-0.2-0.1-0.3-0.1c-0.1,0-0.3,0.1-0.3,0.2v3c0,0.1,0,0.2-0.1,0.2c-0.1,0.1-0.2,0.1-0.2,0.1h-1
	c-0.1,0-0.2,0-0.3-0.1C51.7,12.7,51.7,12.6,51.7,12.5z M54.1,7.8c0.1,0,0.2,0,0.3-0.1c0.1,0,0.2-0.1,0.3-0.2
	c0.1-0.1,0.1-0.2,0.1-0.3V6c0-0.1,0-0.2-0.1-0.3c-0.1-0.1-0.1-0.2-0.3-0.3c-0.1-0.1-0.2-0.1-0.3-0.1h-0.7c0,0-0.1,0-0.1,0.1
	c0,0,0,0.1,0,0.1v2.1c0,0.1,0,0.1,0.1,0.1c0,0,0.1,0.1,0.2,0.1L54.1,7.8z"/>
<path d="M66.2,12.4V4.3c0-0.1,0.1-0.2,0.1-0.2C66.4,4,66.5,4,66.6,4h3.7c0.1,0,0.2,0,0.2,0.1c0.1,0.1,0.1,0.1,0.1,0.2v0.9
	c0,0.1,0,0.1,0,0.2c0,0.1-0.1,0.1-0.1,0.1c-0.1,0-0.1,0-0.2,0h-2.6v2h1.9c0.1,0,0.2,0,0.2,0.1C69.9,7.7,70,7.7,70,7.8v0.9
	c0,0.1,0,0.2-0.1,0.2C69.8,9,69.7,9,69.6,9h-1.9v2.2h2.5c0.1,0,0.2,0,0.2,0.1c0.1,0.1,0.1,0.1,0.1,0.2v0.9c0,0.1,0,0.1,0,0.2
	c0,0-0.1,0.1-0.1,0.1c-0.1,0-0.1,0-0.2,0h-3.7c-0.1,0-0.2,0-0.3-0.1C66.3,12.6,66.2,12.5,66.2,12.4z"/>
<path d="M72.9,12.5V8.9c0-0.2-0.1-0.4-0.2-0.6l-1.4-3.8c0-0.1,0-0.1,0-0.2c0-0.1,0-0.1,0-0.2c0-0.1,0.1-0.1,0.2-0.1
	C71.5,4,71.6,4,71.6,4h0.8c0.2,0,0.3,0.1,0.4,0.3l0.8,2.5c0,0,0,0,0.1,0l0,0l0.9-2.5C74.7,4.1,74.8,4,75,4h0.8C75.8,4,75.9,4,76,4
	c0.1,0,0.1,0.1,0.2,0.1c0,0.1,0,0.1,0,0.2c0,0,0,0.1,0,0.1v0.1l-1.4,3.8c-0.1,0.2-0.1,0.4-0.2,0.6v3.6c0,0.1,0,0.1-0.1,0.2
	c0,0.1-0.1,0.1-0.1,0.1c-0.1,0-0.1,0-0.2,0.1h-0.9c-0.1,0-0.1,0-0.2-0.1c-0.1,0-0.1-0.1-0.2-0.1C72.9,12.6,72.9,12.6,72.9,12.5z"/>
<path d="M77,12.4V4.3c0-0.1,0-0.2,0.1-0.2C77.2,4,77.3,4,77.4,4h3.7c0.1,0,0.2,0,0.2,0.1c0.1,0.1,0.1,0.1,0.1,0.2v0.9
	c0,0.1,0,0.1,0,0.2c0,0.1-0.1,0.1-0.1,0.1c-0.1,0-0.1,0-0.2,0h-2.6v2h1.9c0.1,0,0.2,0,0.2,0.1c0.1,0.1,0.1,0.1,0.1,0.2v0.9
	c0,0.1,0,0.2-0.1,0.2C80.6,9,80.5,9,80.4,9h-1.9v2.2H81c0.1,0,0.2,0,0.2,0.1c0.1,0.1,0.1,0.1,0.1,0.2v0.9c0,0.1,0,0.1,0,0.2
	c0,0-0.1,0.1-0.1,0.1c-0.1,0-0.1,0-0.2,0h-3.7C77.2,12.7,77,12.6,77,12.4C77,12.4,77,12.4,77,12.4L77,12.4z"/>
<path d="M83.5,12.5l-1.5-8.2l0,0c0-0.1,0-0.1,0.1-0.2C82.2,4.1,82.3,4,82.4,4h0.9c0.1,0,0.2,0,0.3,0.1c0.1,0.1,0.1,0.1,0.1,0.2
	l0.8,5l0,0h0.1l0,0l0.7-5c0-0.1,0.1-0.1,0.1-0.1c0-0.1,0.1-0.1,0.2-0.1c0.1,0,0.1,0,0.2,0h1c0.1,0,0.1,0,0.2,0
	c0.1,0,0.1,0.1,0.2,0.1c0,0,0.1,0.1,0.1,0.2l0.8,5.2l0,0l0,0l0,0l0.7-5.1c0-0.1,0.1-0.2,0.1-0.2c0.1-0.1,0.2-0.1,0.3-0.1h0.9
	c0,0,0.1,0,0.2,0c0,0,0.1,0.1,0.1,0.1c0,0,0,0.1,0,0.1l-1.3,8.1c0,0.1-0.1,0.2-0.1,0.3c-0.1,0.1-0.2,0.1-0.3,0.1h-1.1
	c-0.1,0-0.2,0-0.2-0.1c-0.1-0.1-0.1-0.1-0.2-0.2l-0.7-4l-0.6,3.9c0,0.1-0.1,0.2-0.2,0.3c-0.1,0.1-0.2,0.1-0.3,0.1h-1.2
	c-0.1,0-0.1,0-0.2,0c-0.1,0-0.1-0.1-0.2-0.1C83.6,12.6,83.5,12.6,83.5,12.5z"/>
<path d="M91.1,12.4V4.3c0-0.1,0-0.2,0.1-0.2C91.3,4,91.4,4,91.5,4h3.7c0.1,0,0.2,0,0.2,0.1c0.1,0.1,0.1,0.1,0.1,0.2v0.9
	c0,0.1,0,0.1,0,0.2c0,0.1-0.1,0.1-0.1,0.1c-0.1,0-0.1,0-0.2,0h-2.6v2h1.9c0.1,0,0.2,0,0.2,0.1c0.1,0.1,0.1,0.1,0.1,0.2v0.9
	c0,0.1,0,0.2-0.1,0.2C94.7,9,94.6,9,94.5,9h-1.9v2.2h2.5c0.1,0,0.2,0,0.2,0.1c0.1,0.1,0.1,0.1,0.1,0.2v0.9c0,0.1,0,0.1,0,0.2
	c0,0-0.1,0.1-0.1,0.1c-0.1,0-0.1,0-0.2,0h-3.7C91.3,12.7,91.1,12.6,91.1,12.4C91.1,12.4,91.1,12.4,91.1,12.4L91.1,12.4z"/>
<path d="M96.1,12.5L96.1,12.5l1.7-8.1c0-0.1,0.1-0.2,0.2-0.2c0.1-0.1,0.2-0.1,0.3-0.1h1.6c0.1,0,0.1,0,0.2,0c0.1,0,0.1,0.1,0.2,0.1
	c0,0,0.1,0.1,0.1,0.2l1.6,8.1v0c0,0.1,0,0.1-0.1,0.2c-0.1,0.1-0.1,0.1-0.2,0.1h-1.1c-0.2,0-0.3-0.1-0.3-0.2c0,0,0,0,0,0l-0.4-2h-1.6
	l-0.4,2c0,0.1,0,0.2-0.1,0.2c-0.1,0-0.1,0.1-0.2,0.1h-1.1c-0.1,0-0.2,0-0.2-0.1C96.1,12.6,96,12.6,96.1,12.5z M99.5,9L99,5.9l0,0
	h-0.1l0,0L98.4,9L99.5,9z"/>
<path d="M102.6,12.5V4.4c0-0.1,0-0.1,0-0.2c0-0.1,0.1-0.1,0.1-0.1c0.1,0,0.1,0,0.2,0h2.4c0.3,0,0.7,0.1,1,0.2
	c0.3,0.1,0.5,0.4,0.7,0.6c0.2,0.3,0.2,0.6,0.2,0.9v1.5c0,0.2,0,0.4-0.1,0.6c-0.1,0.2-0.2,0.4-0.3,0.5c-0.1,0.2-0.3,0.3-0.5,0.4l0,0
	l1.3,3.7c0,0,0,0,0,0.1c0,0.1,0,0.1-0.1,0.1c0,0-0.1,0.1-0.2,0.1h-1.1c-0.1,0-0.1,0-0.2,0c-0.1,0-0.1-0.1-0.1-0.1
	c0,0-0.1-0.1-0.1-0.1l-1-3.1c-0.1-0.1-0.2-0.1-0.3-0.1c-0.1,0-0.3,0.1-0.3,0.2v3c0,0.1,0,0.2-0.1,0.2c-0.1,0.1-0.1,0.1-0.2,0.1h-1
	c-0.1,0-0.2,0-0.3-0.1C102.7,12.7,102.6,12.6,102.6,12.5z M105,7.8c0.1,0,0.2,0,0.3-0.1c0.1-0.1,0.2-0.1,0.3-0.2
	c0.1-0.1,0.1-0.2,0.1-0.3V6c0-0.1,0-0.2-0.1-0.3c-0.1-0.1-0.2-0.2-0.3-0.3c-0.1-0.1-0.2-0.1-0.3-0.1h-0.7c0,0-0.1,0-0.1,0.1
	c0,0,0,0.1,0,0.1v2.1c0,0.1,0,0.1,0.1,0.1c0,0,0.1,0.1,0.2,0.1L105,7.8z"/>
<rect x="61.4" y="1" width="1" height="13"/>
</svg>
