<svg id="Layer_1" data-name="Layer 1" xmlns="http://www.w3.org/2000/svg" viewBox="0 0 103.69 13"><title>commerce2</title><path d="M5.12,11,3.64,2.84v0a.29.29,0,0,1,.08-.19.31.31,0,0,1,.21-.07h.9a.4.4,0,0,1,.25.09.48.48,0,0,1,.14.22l.82,5,0,0h.09l0,0,.67-5a.38.38,0,0,1,.08-.17.47.47,0,0,1,.15-.13.32.32,0,0,1,.16,0h1a.32.32,0,0,1,.16,0,.41.41,0,0,1,.14.12.28.28,0,0,1,.08.15L9.44,8s0,0,.05,0l0,0s0,0,0,0l.69-5.08a.37.37,0,0,1,.14-.24.33.33,0,0,1,.25-.1h.9a.28.28,0,0,1,.15,0,.36.36,0,0,1,.11.1.19.19,0,0,1,0,.11l-1.29,8.09a.53.53,0,0,1-.14.3.36.36,0,0,1-.26.11H8.88a.4.4,0,0,1-.25-.09A.48.48,0,0,1,8.49,11L7.77,7l-.61,3.92a.62.62,0,0,1-.16.3.36.36,0,0,1-.26.11H5.5a.34.34,0,0,1-.17,0,.33.33,0,0,1-.15-.11A.24.24,0,0,1,5.12,11Z" transform="translate(-3.64 0.5)"/><path d="M12.71,10.92V2.84a.32.32,0,0,1,.09-.23A.32.32,0,0,1,13,2.52h3.69a.36.36,0,0,1,.24.09.33.33,0,0,1,.1.23V3.7a.31.31,0,0,1-.05.17A.3.3,0,0,1,16.9,4a.33.33,0,0,1-.17,0H14.21V6h1.91a.28.28,0,0,1,.22.09.3.3,0,0,1,.09.23v.87a.32.32,0,0,1-.09.23.27.27,0,0,1-.22.08H14.21V9.73h2.52a.36.36,0,0,1,.24.09.33.33,0,0,1,.1.23v.87a.34.34,0,0,1-.05.17.34.34,0,0,1-.12.12.33.33,0,0,1-.17,0H13a.32.32,0,0,1-.24-.09A.36.36,0,0,1,12.71,10.92Z" transform="translate(-3.64 0.5)"/><path d="M20,10.88V3.07a.57.57,0,0,1,.08-.28.61.61,0,0,1,.2-.19.57.57,0,0,1,.29-.07H23.1a1.47,1.47,0,0,1,.76.2,1.61,1.61,0,0,1,.57.56,1.82,1.82,0,0,1,.21.88l0,1a2.85,2.85,0,0,1-.08.62,1.67,1.67,0,0,1-.29.6,1,1,0,0,1-.56.38,1.22,1.22,0,0,1,.86.56,2.41,2.41,0,0,1,.33,1.22v.85a2.28,2.28,0,0,1-.14.86,1.77,1.77,0,0,1-.38.58,1.53,1.53,0,0,1-.52.33,1.87,1.87,0,0,1-.62.15H20.39a.33.33,0,0,1-.19-.06.29.29,0,0,1-.15-.14A.33.33,0,0,1,20,10.88ZM22.44,6.1A.53.53,0,0,0,22.78,6,.83.83,0,0,0,23,5.66a1.06,1.06,0,0,0,.08-.48v-.6a1,1,0,0,0-.19-.68.73.73,0,0,0-.58-.22h-.69a.16.16,0,0,0-.13.07.24.24,0,0,0-.06.15l0,2.1q0,.12.15.12Zm.18,4a.9.9,0,0,0,.57-.32,1.12,1.12,0,0,0,.18-.68V8.48a1.46,1.46,0,0,0-.1-.61A.66.66,0,0,0,23,7.55a1.39,1.39,0,0,0-.53-.1h-.75a.17.17,0,0,0-.14.07.34.34,0,0,0-.05.17l0,2.26a.17.17,0,0,0,0,.13.34.34,0,0,0,.16,0Z" transform="translate(-3.64 0.5)"/><path d="M26.34,10.08A2.42,2.42,0,0,1,26,8.85V3.09a.64.64,0,0,1,.07-.34.33.33,0,0,1,.18-.17.72.72,0,0,1,.31-.05h.71l.1,0a.18.18,0,0,1,.09.07.24.24,0,0,1,.1.16,1.15,1.15,0,0,1,0,.3v5.7a1,1,0,0,0,.14.51,1,1,0,0,0,.36.38.92.92,0,0,0,.49.13h.2a1,1,0,0,0,.5-.13,1,1,0,0,0,.35-.38,1,1,0,0,0,.14-.51V3.08a.77.77,0,0,1,.06-.34A.31.31,0,0,1,30,2.58a.69.69,0,0,1,.31-.05h.49a.81.81,0,0,1,.34.05.27.27,0,0,1,.17.16.82.82,0,0,1,.06.35V8.85a2.32,2.32,0,0,1-.15.84,2.55,2.55,0,0,1-.43.73,2.69,2.69,0,0,1-.66.55,2.35,2.35,0,0,1-1.22.33h-.45a2.66,2.66,0,0,1-.85-.14,2.55,2.55,0,0,1-.73-.43A2.47,2.47,0,0,1,26.34,10.08Z" transform="translate(-3.64 0.5)"/><path d="M33.64,11V7.43a2.1,2.1,0,0,0-.17-.6L32,3a.29.29,0,0,1,0-.16A.33.33,0,0,1,32,2.69a.38.38,0,0,1,.15-.13.43.43,0,0,1,.22-.06h.77a.46.46,0,0,1,.42.27l.84,2.48a.09.09,0,0,0,.06,0,.05.05,0,0,0,0,0l.87-2.48a.33.33,0,0,1,.14-.19.4.4,0,0,1,.23-.08h.79a.43.43,0,0,1,.22.06.4.4,0,0,1,.15.14.41.41,0,0,1,.05.19A.25.25,0,0,1,37,3,.56.56,0,0,1,37,3L35.49,6.83a3.29,3.29,0,0,0-.15.6V11a.34.34,0,0,1-.05.17.44.44,0,0,1-.15.12.46.46,0,0,1-.2.05H34a.41.41,0,0,1-.19-.05.33.33,0,0,1-.14-.12A.27.27,0,0,1,33.64,11Z" transform="translate(-3.64 0.5)"/><path d="M39.65,10.92V2.84A.32.32,0,0,1,40,2.52h3.69a.32.32,0,0,1,.34.32V3.7a.31.31,0,0,1-.05.17.3.3,0,0,1-.12.13.33.33,0,0,1-.17,0H41.15V6h1.92a.28.28,0,0,1,.22.09.3.3,0,0,1,.09.23v.87a.32.32,0,0,1-.09.23.27.27,0,0,1-.22.08H41.15V9.73h2.53a.32.32,0,0,1,.34.32v.87a.34.34,0,0,1-.05.17.34.34,0,0,1-.12.12.33.33,0,0,1-.17,0H40a.32.32,0,0,1-.24-.09A.37.37,0,0,1,39.65,10.92Z" transform="translate(-3.64 0.5)"/><path d="M45.34,10.17A2.54,2.54,0,0,1,45,8.93V4.78a2.39,2.39,0,0,1,.14-.84,2.2,2.2,0,0,1,.41-.71,2.55,2.55,0,0,1,.64-.53,2.38,2.38,0,0,1,1.2-.31h.39a2.88,2.88,0,0,1,.78.1,2.67,2.67,0,0,1,.7.34,1.89,1.89,0,0,1,.55.54,2.09,2.09,0,0,1,.36,1.18.2.2,0,0,1-.06.15.2.2,0,0,1-.16.07H48.91a.32.32,0,0,1-.2-.06.18.18,0,0,1-.09-.16,1,1,0,0,0-.18-.47.7.7,0,0,0-.35-.23,1.75,1.75,0,0,0-.5-.06h-.05a1,1,0,0,0-.5.13,1,1,0,0,0-.36.34.93.93,0,0,0-.14.49V8.87a1,1,0,0,0,.14.5,1,1,0,0,0,.37.38,1,1,0,0,0,.5.14h0a.93.93,0,0,0,.49-.14,1.07,1.07,0,0,0,.35-.38,1.06,1.06,0,0,0,.12-.5V8.28h-.64a.29.29,0,0,1-.19-.08A.27.27,0,0,1,47.64,8V7.09a.3.3,0,0,1,0-.15.25.25,0,0,1,.11-.12.29.29,0,0,1,.16,0h1.95a.23.23,0,0,1,.14,0,.25.25,0,0,1,.11.12.3.3,0,0,1,.05.15V8.92a2.45,2.45,0,0,1-.15.85,2.55,2.55,0,0,1-.41.74,2.59,2.59,0,0,1-.63.56,2.26,2.26,0,0,1-1.2.33h-.4a2.25,2.25,0,0,1-.82-.15,2.61,2.61,0,0,1-.72-.42A2.89,2.89,0,0,1,45.34,10.17Z" transform="translate(-3.64 0.5)"/><path d="M51.34,11V2.9a.34.34,0,0,1,0-.17.37.37,0,0,1,.12-.13.41.41,0,0,1,.18-.05h2.45a2.18,2.18,0,0,1,1,.24,1.63,1.63,0,0,1,.68.62,1.67,1.67,0,0,1,.24.89V5.83a1.47,1.47,0,0,1-.12.58,1.69,1.69,0,0,1-.32.51,1.66,1.66,0,0,1-.49.38l0,0L56.41,11a.55.55,0,0,1,0,.09.17.17,0,0,1-.07.13.25.25,0,0,1-.17.06H55.09a.34.34,0,0,1-.16,0,.72.72,0,0,1-.15-.11.38.38,0,0,1-.09-.13l-1-3.12a.61.61,0,0,0-.31-.09.43.43,0,0,0-.34.15V11a.26.26,0,0,1-.1.21.36.36,0,0,1-.24.08h-1a.41.41,0,0,1-.25-.08A.3.3,0,0,1,51.34,11Zm2.43-4.71a.73.73,0,0,0,.35-.09A.64.64,0,0,0,54.37,6a.6.6,0,0,0,.1-.33V4.48a.62.62,0,0,0-.1-.35.67.67,0,0,0-.25-.25.73.73,0,0,0-.35-.09h-.69a.14.14,0,0,0-.11.06.13.13,0,0,0,0,.12v2.1a.2.2,0,0,0,.06.14.18.18,0,0,0,.15.07Z" transform="translate(-3.64 0.5)"/><path d="M65.87,10.92V2.84A.32.32,0,0,1,66,2.61a.35.35,0,0,1,.25-.09h3.68a.32.32,0,0,1,.24.09.29.29,0,0,1,.1.23V3.7a.31.31,0,0,1,0,.17.33.33,0,0,1-.13.13.31.31,0,0,1-.17,0H67.37V6h1.91a.32.32,0,0,1,.23.09.34.34,0,0,1,.08.23v.87a.36.36,0,0,1-.08.23.31.31,0,0,1-.23.08H67.37V9.73h2.52a.32.32,0,0,1,.24.09.29.29,0,0,1,.1.23v.87a.33.33,0,0,1,0,.17.37.37,0,0,1-.13.12.31.31,0,0,1-.17,0H66.21a.37.37,0,0,1-.25-.09A.36.36,0,0,1,65.87,10.92Z" transform="translate(-3.64 0.5)"/><path d="M72.53,11V7.43a2.1,2.1,0,0,0-.17-.6L70.91,3a.29.29,0,0,1,0-.16.41.41,0,0,1,0-.19.42.42,0,0,1,.16-.13.39.39,0,0,1,.21-.06h.78a.46.46,0,0,1,.42.27l.84,2.48a.09.09,0,0,0,.06,0l0,0,.86-2.48a.43.43,0,0,1,.38-.27h.79a.37.37,0,0,1,.21.06.36.36,0,0,1,.16.14.41.41,0,0,1,0,.19.25.25,0,0,1,0,.08V3L74.38,6.83a2.64,2.64,0,0,0-.15.6V11a.27.27,0,0,1-.06.17.33.33,0,0,1-.14.12.46.46,0,0,1-.2.05h-.91a.41.41,0,0,1-.19-.05.44.44,0,0,1-.15-.12A.34.34,0,0,1,72.53,11Z" transform="translate(-3.64 0.5)"/><path d="M76.67,10.92V2.84a.32.32,0,0,1,.09-.23A.34.34,0,0,1,77,2.52h3.69a.32.32,0,0,1,.24.09.29.29,0,0,1,.1.23V3.7a.31.31,0,0,1,0,.17.33.33,0,0,1-.13.13.33.33,0,0,1-.17,0H78.17V6h1.91a.32.32,0,0,1,.23.09.34.34,0,0,1,.08.23v.87a.36.36,0,0,1-.08.23.31.31,0,0,1-.23.08H78.17V9.73h2.52a.32.32,0,0,1,.24.09.29.29,0,0,1,.1.23v.87a.33.33,0,0,1,0,.17.37.37,0,0,1-.13.12.33.33,0,0,1-.17,0H77a.31.31,0,0,1-.33-.33Z" transform="translate(-3.64 0.5)"/><path d="M83.18,11,81.71,2.84a.07.07,0,0,1,0,0,.29.29,0,0,1,.08-.19A.31.31,0,0,1,82,2.53h.9a.38.38,0,0,1,.25.09.48.48,0,0,1,.14.22l.83,5s0,0,0,0h.08s0,0,0,0l.68-5A.36.36,0,0,1,85,2.7a.47.47,0,0,1,.15-.13.32.32,0,0,1,.16,0h1a.32.32,0,0,1,.16,0,.44.44,0,0,1,.15.12.37.37,0,0,1,.08.15L87.5,8s0,0,0,0l0,0s0,0,0,0l.68-5.08a.42.42,0,0,1,.14-.24.35.35,0,0,1,.25-.1h.9a.28.28,0,0,1,.15,0,.27.27,0,0,1,.11.1.19.19,0,0,1,0,.11l-1.29,8.09a.53.53,0,0,1-.14.3.36.36,0,0,1-.26.11H86.94a.36.36,0,0,1-.24-.09.51.51,0,0,1-.15-.22l-.72-4-.61,3.92a.71.71,0,0,1-.15.3.39.39,0,0,1-.27.11H83.57a.41.41,0,0,1-.18,0,.33.33,0,0,1-.15-.11A.24.24,0,0,1,83.18,11Z" transform="translate(-3.64 0.5)"/><path d="M90.77,10.92V2.84a.32.32,0,0,1,.09-.23.32.32,0,0,1,.24-.09h3.69a.32.32,0,0,1,.24.09.29.29,0,0,1,.1.23V3.7a.25.25,0,0,1,0,.17A.3.3,0,0,1,95,4a.33.33,0,0,1-.17,0H92.27V6h1.91a.32.32,0,0,1,.23.09.34.34,0,0,1,.08.23v.87a.36.36,0,0,1-.08.23.31.31,0,0,1-.23.08H92.27V9.73h2.52a.32.32,0,0,1,.24.09.29.29,0,0,1,.1.23v.87a.26.26,0,0,1,0,.17.34.34,0,0,1-.12.12.33.33,0,0,1-.17,0H91.1a.31.31,0,0,1-.33-.33Z" transform="translate(-3.64 0.5)"/><path d="M95.69,11v0l1.65-8.1a.38.38,0,0,1,.16-.24.52.52,0,0,1,.29-.09h1.58a.65.65,0,0,1,.2,0,.43.43,0,0,1,.17.12.28.28,0,0,1,.09.17l1.64,8.1V11a.25.25,0,0,1-.09.19.32.32,0,0,1-.23.07h-1.06a.28.28,0,0,1-.32-.27l-.38-2H97.78l-.38,2a.35.35,0,0,1-.1.21.32.32,0,0,1-.22.06H96a.36.36,0,0,1-.24-.07A.25.25,0,0,1,95.69,11Zm3.49-3.5-.54-3.14a.08.08,0,0,0,0,0h-.08a.08.08,0,0,0,0,0L98,7.52Z" transform="translate(-3.64 0.5)"/><path d="M102.26,11V2.9a.33.33,0,0,1,0-.17.4.4,0,0,1,.13-.13.35.35,0,0,1,.18-.05h2.45a2.17,2.17,0,0,1,1,.24,1.63,1.63,0,0,1,.68.62,1.67,1.67,0,0,1,.24.89V5.83a1.47,1.47,0,0,1-.12.58,1.52,1.52,0,0,1-.32.51,1.75,1.75,0,0,1-.48.38v0L107.32,11s0,0,0,.09a.15.15,0,0,1-.07.13.24.24,0,0,1-.17.06H106a.35.35,0,0,1-.17,0,.49.49,0,0,1-.14-.11.22.22,0,0,1-.09-.13l-1-3.12a.61.61,0,0,0-.31-.09.43.43,0,0,0-.34.15V11a.26.26,0,0,1-.1.21.36.36,0,0,1-.23.08h-1a.39.39,0,0,1-.25-.08A.26.26,0,0,1,102.26,11Zm2.42-4.71a.7.7,0,0,0,.35-.09.75.75,0,0,0,.26-.24.68.68,0,0,0,.09-.33V4.48a.7.7,0,0,0-.09-.35.78.78,0,0,0-.26-.25.7.7,0,0,0-.35-.09H104a.14.14,0,0,0-.11.06.17.17,0,0,0,0,.12v2.1a.2.2,0,0,0,.06.14.21.21,0,0,0,.15.07Z" transform="translate(-3.64 0.5)"/><rect x="57.44" width="1" height="13"/></svg>