<svg id="Layer_1" data-name="Layer 1" xmlns="http://www.w3.org/2000/svg" xmlns:xlink="http://www.w3.org/1999/xlink" viewBox="0 0 528 400"><defs><style>.cls-1{fill:none;}.cls-2{fill:#f8fafd;}.cls-3{fill:#d3e0f1;}.cls-4{fill:#7187a5;}.cls-5{fill:#34cbad;}.cls-6{fill:#aeeade;}.cls-7{clip-path:url(#clip-path);}.cls-11,.cls-12,.cls-8{fill:#fff;}.cls-9{clip-path:url(#clip-path-2);}.cls-10{fill:#f9a86c;}.cls-11{opacity:0.2;isolation:isolate;}.cls-12{fill-rule:evenodd;}.cls-13{font-size:33px;fill:#098bdb;font-family:FuturaStd-ExtraBold, Futura Std;font-weight:800;}.cls-14{letter-spacing:0.06em;}</style><clipPath id="clip-path" transform="translate(-12.47 -11)"><rect class="cls-1" x="80" y="152" width="200" height="180" rx="8"/></clipPath><clipPath id="clip-path-2" transform="translate(-12.47 -11)"><rect class="cls-1" x="92" y="164" width="176" height="120" rx="8"/></clipPath></defs><title>cjs-illustration1</title><path class="cls-2" d="M12.47,23a12,12,0,0,1,12-12h504a12,12,0,0,1,12,12V399a12,12,0,0,1-12,12h-504a12,12,0,0,1-12-12Z" transform="translate(-12.47 -11)"/><path class="cls-3" d="M12.47,23a12,12,0,0,1,12-12h504a12,12,0,0,1,12,12V43h-528Z" transform="translate(-12.47 -11)"/><circle class="cls-4" cx="16" cy="16" r="4"/><circle class="cls-4" cx="28" cy="16" r="4"/><circle class="cls-4" cx="40" cy="16" r="4"/><path class="cls-4" d="M315,188H469a3,3,0,0,1,3,3h0a3,3,0,0,1-3,3H315a3,3,0,0,1-3-3h0A3,3,0,0,1,315,188Z" transform="translate(-12.47 -11)"/><path class="cls-4" d="M315,202h92a3,3,0,0,1,3,3h0a3,3,0,0,1-3,3H315a3,3,0,0,1-3-3h0A3,3,0,0,1,315,202Z" transform="translate(-12.47 -11)"/><path class="cls-3" d="M315,232h66a3,3,0,0,1,3,3h0a3,3,0,0,1-3,3H315a3,3,0,0,1-3-3h0A3,3,0,0,1,315,232Z" transform="translate(-12.47 -11)"/><path class="cls-3" d="M315,246h55a3,3,0,0,1,3,3h0a3,3,0,0,1-3,3H315a3,3,0,0,1-3-3h0A3,3,0,0,1,315,246Z" transform="translate(-12.47 -11)"/><rect class="cls-5" x="299.53" y="265" width="72" height="24" rx="4"/><path class="cls-6" d="M335,285h26a3,3,0,0,1,3,3h0a3,3,0,0,1-3,3H335a3,3,0,0,1-3-3h0A3,3,0,0,1,335,285Z" transform="translate(-12.47 -11)"/><g class="cls-7"><rect class="cls-8" x="67.53" y="141" width="200" height="180" rx="8"/><g class="cls-9"><rect class="cls-10" x="79.53" y="153" width="176" height="120" rx="8"/><circle class="cls-11" cx="244.53" cy="245" r="40"/><circle class="cls-11" cx="89.53" cy="172" r="54"/><path class="cls-12" d="M178.93,255a1,1,0,0,1-1,1H164.85a1,1,0,0,1-1-1l0-25.67-7.71,22.4a1,1,0,0,1-1.19.65l-6.22-1.48a1,1,0,0,1-.74-1.21l10.32-41.22a1,1,0,0,1,.58-.67l9-3.85a1.1,1.1,0,0,0,.41-1.66c-1.73-2.42-2.23-5.47.91-7.55,0,0,3.84-2.72,10.79-2.74s10.69,2.66,10.69,2.66c3,1.89,2.65,5.26,1,7.55a1.2,1.2,0,0,0,.4,1.79l8.84,3.8a1,1,0,0,1,.58.67L212,249.69a1,1,0,0,1-.74,1.21l-6.18,1.5a1,1,0,0,1-1.19-.65l-7.75-22.42L196.06,255a1,1,0,0,1-1,1h-13a1,1,0,0,1-1-1V198.67c3.94-.13,7-1,7-2s-3.6-2-8.05-2-8.05.9-8.05,2,3,1.87,7,2Zm10.14-16.87a1.07,1.07,0,0,0-1.49-.23,1,1,0,0,0-.24,1.48l5.06,6.91a1.07,1.07,0,0,0,1.5.23,1.06,1.06,0,0,0,.24-1.48Zm-18.14,0a1.07,1.07,0,0,1,1.49-.23,1,1,0,0,1,.24,1.48l-5.06,6.91a1.07,1.07,0,0,1-1.5.23,1,1,0,0,1-.23-1.48Z" transform="translate(-12.47 -11)"/></g><circle class="cls-11" cx="83.03" cy="226.5" r="30.5"/><path class="cls-3" d="M95,296H196a3,3,0,0,1,3,3h0a3,3,0,0,1-3,3H95a3,3,0,0,1-3-3h0A3,3,0,0,1,95,296Z" transform="translate(-12.47 -11)"/><path class="cls-3" d="M95,314h44a3,3,0,0,1,3,3h0a3,3,0,0,1-3,3H95a3,3,0,0,1-3-3h0A3,3,0,0,1,95,314Z" transform="translate(-12.47 -11)"/><path class="cls-3" d="M221,314h44a3,3,0,0,1,3,3h0a3,3,0,0,1-3,3H221a3,3,0,0,1-3-3h0A3,3,0,0,1,221,314Z" transform="translate(-12.47 -11)"/></g><text class="cls-13" transform="translate(53.05 104)">Eve<tspan class="cls-14" x="66.26" y="0">r</tspan><tspan x="84.58" y="0">yday Getting Rich</tspan></text></svg>