<?xml version="1.0" encoding="utf-8"?>
<!-- Generator: Adobe Illustrator 23.0.6, SVG Export Plug-In . SVG Version: 6.00 Build 0)  -->
<svg version="1.1" id="Layer_1" xmlns="http://www.w3.org/2000/svg" xmlns:xlink="http://www.w3.org/1999/xlink" x="0px" y="0px"
	 viewBox="0 0 552 424" style="enable-background:new 0 0 552 424;" xml:space="preserve">
<style type="text/css">
	.st0{fill:#F8FAFD;}
	.st1{fill:#D3E0F1;}
	.st2{fill:#7187A5;}
	.st3{fill:#34CBAD;}
	.st4{fill:#AEEADE;}
	.st5{clip-path:url(#SVGID_2_);}
	.st6{fill:#FFFFFF;}
	.st7{clip-path:url(#SVGID_4_);}
	.st8{fill:#F9A86C;}
	.st9{opacity:0.2;fill:#FFFFFF;enable-background:new    ;}
	.st10{fill-rule:evenodd;clip-rule:evenodd;fill:#FFFFFF;}
	.st11{fill:#098BDB;}
	.st12{font-family:'FuturaStd-ExtraBold';}
	.st13{font-size:33px;}
</style>
<g>
	<path class="st0" d="M12.5,23c0-6.6,5.4-12,12-12h504c6.6,0,12,5.4,12,12v376c0,6.6-5.4,12-12,12h-504c-6.6,0-12-5.4-12-12V23z"/>
	<path class="st1" d="M12.5,23c0-6.6,5.4-12,12-12h504c6.6,0,12,5.4,12,12v20h-528V23z"/>
	<circle class="st2" cx="28.5" cy="27" r="4"/>
	<circle class="st2" cx="40.5" cy="27" r="4"/>
	<circle class="st2" cx="52.5" cy="27" r="4"/>
</g>
<path class="st2" d="M315,188h154c1.7,0,3,1.3,3,3l0,0c0,1.7-1.3,3-3,3H315c-1.7,0-3-1.3-3-3l0,0C312,189.3,313.3,188,315,188z"/>
<path class="st2" d="M315,202h92c1.7,0,3,1.3,3,3l0,0c0,1.7-1.3,3-3,3h-92c-1.7,0-3-1.3-3-3l0,0C312,203.3,313.3,202,315,202z"/>
<path class="st1" d="M315,232h66c1.7,0,3,1.3,3,3l0,0c0,1.7-1.3,3-3,3h-66c-1.7,0-3-1.3-3-3l0,0C312,233.3,313.3,232,315,232z"/>
<path class="st1" d="M315,246h55c1.7,0,3,1.3,3,3l0,0c0,1.7-1.3,3-3,3h-55c-1.7,0-3-1.3-3-3l0,0C312,247.3,313.3,246,315,246z"/>
<path class="st3" d="M316,276h64c2.2,0,4,1.8,4,4v16c0,2.2-1.8,4-4,4h-64c-2.2,0-4-1.8-4-4v-16C312,277.8,313.8,276,316,276z"/>
<path class="st4" d="M335,285h26c1.7,0,3,1.3,3,3l0,0c0,1.7-1.3,3-3,3h-26c-1.7,0-3-1.3-3-3l0,0C332,286.3,333.3,285,335,285z"/>
<g>
	<g>
		<defs>
			<path id="SVGID_1_" d="M88,152h184c4.4,0,8,3.6,8,8v164c0,4.4-3.6,8-8,8H88c-4.4,0-8-3.6-8-8V160C80,155.6,83.6,152,88,152z"/>
		</defs>
		<clipPath id="SVGID_2_">
			<use xlink:href="#SVGID_1_"  style="overflow:visible;"/>
		</clipPath>
		<g class="st5">
			<path class="st6" d="M88,152h184c4.4,0,8,3.6,8,8v164c0,4.4-3.6,8-8,8H88c-4.4,0-8-3.6-8-8V160C80,155.6,83.6,152,88,152z"/>
			<g>
				<defs>
					<path id="SVGID_3_" d="M100,164h160c4.4,0,8,3.6,8,8v104c0,4.4-3.6,8-8,8H100c-4.4,0-8-3.6-8-8V172C92,167.6,95.6,164,100,164z
						"/>
				</defs>
				<clipPath id="SVGID_4_">
					<use xlink:href="#SVGID_3_"  style="overflow:visible;"/>
				</clipPath>
				<g class="st7">
					<path class="st8" d="M100,164h160c4.4,0,8,3.6,8,8v104c0,4.4-3.6,8-8,8H100c-4.4,0-8-3.6-8-8V172C92,167.6,95.6,164,100,164z"
						/>
					<circle class="st9" cx="257" cy="256" r="40"/>
					<circle class="st9" cx="102" cy="183" r="54"/>
					<path class="st10" d="M178.9,255c0,0.6-0.5,1-1,1h-13.1c-0.6,0-1-0.4-1-1l0-25.7l-7.7,22.4c-0.2,0.5-0.7,0.8-1.2,0.6l-6.2-1.5
						c-0.5-0.1-0.9-0.7-0.7-1.2l10.3-41.2c0.1-0.3,0.3-0.6,0.6-0.7l9-3.8c0.6-0.3,0.8-1.1,0.4-1.7c-1.7-2.4-2.2-5.5,0.9-7.5
						c0,0,3.8-2.7,10.8-2.7c6.9,0,10.7,2.7,10.7,2.7c3,1.9,2.7,5.3,1,7.6c-0.4,0.6-0.3,1.5,0.4,1.8l8.8,3.8c0.3,0.1,0.5,0.4,0.6,0.7
						l10.4,41.2c0.1,0.5-0.2,1.1-0.7,1.2l-6.2,1.5c-0.5,0.1-1-0.2-1.2-0.6l-7.8-22.4l0,25.7c0,0.6-0.5,1-1,1h-13c-0.6,0-1-0.4-1-1
						v-56.3c3.9-0.1,7-1,7-2c0-1.1-3.6-2-8.1-2c-4.4,0-8.1,0.9-8.1,2c0,1,3,1.9,7,2V255z M189.1,238.1c-0.3-0.5-1-0.6-1.5-0.2
						c-0.5,0.3-0.6,1-0.2,1.5l5.1,6.9c0.3,0.5,1,0.6,1.5,0.2c0.5-0.3,0.6-1,0.2-1.5L189.1,238.1z M170.9,238.1
						c0.3-0.5,1-0.6,1.5-0.2c0.5,0.3,0.6,1,0.2,1.5l-5.1,6.9c-0.3,0.5-1,0.6-1.5,0.2c-0.5-0.3-0.6-1-0.2-1.5L170.9,238.1z"/>
				</g>
			</g>
			<circle class="st9" cx="95.5" cy="237.5" r="30.5"/>
			<path class="st1" d="M95,296h101c1.7,0,3,1.3,3,3l0,0c0,1.7-1.3,3-3,3H95c-1.7,0-3-1.3-3-3l0,0C92,297.3,93.3,296,95,296z"/>
			<path class="st1" d="M95,314h44c1.7,0,3,1.3,3,3l0,0c0,1.7-1.3,3-3,3H95c-1.7,0-3-1.3-3-3l0,0C92,315.3,93.3,314,95,314z"/>
			<path class="st1" d="M221,314h44c1.7,0,3,1.3,3,3l0,0c0,1.7-1.3,3-3,3h-44c-1.7,0-3-1.3-3-3l0,0C218,315.3,219.3,314,221,314z"/>
		</g>
	</g>
</g>
<text transform="matrix(1 0 0 1 65.5251 115)" class="st11 st12 st13">Everyday Getting Rich</text>
</svg>
